<svg xmlns="http://www.w3.org/2000/svg" xmlns:xlink="http://www.w3.org/1999/xlink" width="300" zoomAndPan="magnify" viewBox="0 0 224.87999 225" height="300" preserveAspectRatio="xMidYMid meet" version="1.0"><defs><g/><clipPath id="530f052960"><path d="M 0 0.0585938 L 224.761719 0.0585938 L 224.761719 224.9375 L 0 224.9375 Z M 0 0.0585938 " clip-rule="nonzero"/></clipPath><clipPath id="2e4870c821"><path d="M 0 27 L 224.761719 27 L 224.761719 199 L 0 199 Z M 0 27 " clip-rule="nonzero"/></clipPath></defs><g clip-path="url(#530f052960)"><path fill="#ffffff" d="M 0 0.0585938 L 224.878906 0.0585938 L 224.878906 224.941406 L 0 224.941406 Z M 0 0.0585938 " fill-opacity="1" fill-rule="nonzero"/><path fill="#ffffff" d="M 0 0.0585938 L 224.878906 0.0585938 L 224.878906 224.941406 L 0 224.941406 Z M 0 0.0585938 " fill-opacity="1" fill-rule="nonzero"/></g><path fill="#f7b538" d="M 112.386719 183.003906 C 112.386719 183.082031 112.386719 183.164062 112.382812 183.242188 C 112.378906 183.40625 112.363281 183.570312 112.347656 183.730469 C 112.363281 183.566406 112.378906 183.40625 112.382812 183.242188 C 112.386719 183.164062 112.386719 183.082031 112.386719 183.003906 " fill-opacity="1" fill-rule="nonzero"/><g clip-path="url(#2e4870c821)"><path fill="#f7b538" d="M 181.421875 133.117188 C 184.910156 133.117188 187.769531 130.257812 187.769531 126.769531 C 187.769531 123.28125 184.910156 120.417969 181.421875 120.417969 C 177.933594 120.417969 175.074219 123.28125 175.074219 126.769531 C 175.074219 130.257812 177.933594 133.117188 181.421875 133.117188 Z M 181.421875 135.109375 C 186.011719 135.109375 189.765625 131.359375 189.765625 126.769531 C 189.765625 122.175781 186.011719 118.425781 181.421875 118.425781 C 176.832031 118.425781 173.105469 122.175781 173.105469 126.769531 C 173.105469 131.359375 176.832031 135.109375 181.421875 135.109375 Z M 166.992188 148.097656 C 170.484375 148.097656 173.316406 145.261719 173.316406 141.746094 C 173.316406 138.257812 170.484375 135.425781 166.992188 135.425781 C 163.503906 135.425781 160.644531 138.257812 160.644531 141.746094 C 160.644531 145.261719 163.503906 148.097656 166.992188 148.097656 Z M 166.992188 150.089844 C 171.585938 150.089844 175.308594 146.339844 175.308594 141.746094 C 175.308594 137.183594 171.585938 133.429688 166.992188 133.429688 C 162.402344 133.429688 158.652344 137.183594 158.652344 141.746094 C 158.652344 146.339844 162.402344 150.089844 166.992188 150.089844 Z M 100.363281 152.53125 C 103.851562 152.53125 106.683594 149.695312 106.683594 146.207031 C 106.683594 142.71875 103.851562 139.859375 100.363281 139.859375 C 96.875 139.859375 94.015625 142.71875 94.015625 146.207031 C 94.015625 149.695312 96.875 152.53125 100.363281 152.53125 Z M 100.363281 154.523438 C 104.953125 154.523438 108.679688 150.796875 108.679688 146.207031 C 108.679688 141.617188 104.953125 137.867188 100.363281 137.867188 C 95.769531 137.867188 92.019531 141.617188 92.019531 146.207031 C 92.019531 150.796875 95.769531 154.523438 100.363281 154.523438 Z M 71.480469 141.433594 C 74.96875 141.433594 77.828125 138.601562 77.828125 135.082031 C 77.828125 131.597656 74.96875 128.761719 71.480469 128.761719 C 67.992188 128.761719 65.132812 131.597656 65.132812 135.082031 C 65.132812 138.601562 67.992188 141.433594 71.480469 141.433594 Z M 71.480469 143.425781 C 76.070312 143.425781 79.820312 139.675781 79.820312 135.082031 C 79.820312 130.519531 76.070312 126.769531 71.480469 126.769531 C 66.890625 126.769531 63.164062 130.519531 63.164062 135.082031 C 63.164062 139.675781 66.890625 143.425781 71.480469 143.425781 Z M 45.929688 133.667969 C 49.445312 133.667969 52.277344 130.808594 52.277344 127.320312 C 52.277344 123.832031 49.445312 120.972656 45.929688 120.972656 C 42.441406 120.972656 39.605469 123.832031 39.605469 127.320312 C 39.605469 130.808594 42.441406 133.667969 45.929688 133.667969 Z M 45.929688 135.660156 C 50.519531 135.660156 54.269531 131.910156 54.269531 127.320312 C 54.269531 122.726562 50.519531 119.003906 45.929688 119.003906 C 41.363281 119.003906 37.613281 122.726562 37.613281 127.320312 C 37.613281 131.910156 41.363281 135.660156 45.929688 135.660156 Z M 93.148438 111.449219 C 96.636719 111.449219 99.46875 108.617188 99.46875 105.101562 C 99.46875 101.613281 96.636719 98.777344 93.148438 98.777344 C 89.632812 98.777344 86.800781 101.613281 86.800781 105.101562 C 86.800781 108.617188 89.632812 111.449219 93.148438 111.449219 Z M 93.148438 113.441406 C 97.738281 113.441406 101.464844 109.691406 101.464844 105.101562 C 101.464844 100.535156 97.738281 96.785156 93.148438 96.785156 C 88.558594 96.785156 84.804688 100.535156 84.804688 105.101562 C 84.804688 109.691406 88.558594 113.441406 93.148438 113.441406 Z M 140.890625 123.671875 C 144.378906 123.671875 147.242188 120.8125 147.242188 117.324219 C 147.242188 113.835938 144.378906 110.976562 140.890625 110.976562 C 137.402344 110.976562 134.542969 113.835938 134.542969 117.324219 C 134.542969 120.8125 137.402344 123.671875 140.890625 123.671875 Z M 140.890625 125.664062 C 145.484375 125.664062 149.234375 121.914062 149.234375 117.324219 C 149.234375 112.734375 145.484375 109.007812 140.890625 109.007812 C 136.300781 109.007812 132.550781 112.734375 132.550781 117.324219 C 132.550781 121.914062 136.300781 125.664062 140.890625 125.664062 Z M 181.96875 92.320312 C 186.839844 92.320312 190.832031 88.328125 190.832031 83.460938 C 190.832031 78.589844 186.839844 74.59375 181.96875 74.59375 C 177.09375 74.59375 173.140625 78.589844 173.140625 83.460938 C 173.140625 88.328125 177.09375 92.320312 181.96875 92.320312 Z M 221.90625 132.035156 C 221.625 129.125 219.9375 124.578125 218.988281 122.351562 C 218.566406 121.316406 218.574219 120.851562 218.6875 120.109375 C 218.71875 119.90625 218.757812 119.648438 218.777344 119.273438 C 218.792969 119.058594 218.796875 118.855469 218.800781 118.648438 L 167.796875 142.386719 L 164.320312 158.625 C 164.964844 158.996094 165.644531 159.652344 166.4375 160.421875 C 167.027344 161.003906 167.640625 161.597656 168.101562 161.933594 C 171.796875 164.632812 173.039062 165.539062 177.160156 167.183594 C 177.425781 167.28125 177.625 167.402344 177.777344 167.488281 C 177.914062 167.570312 177.988281 167.617188 178.175781 167.675781 L 181.941406 168.769531 C 186.207031 169.753906 190.867188 169.816406 194.996094 168.929688 L 195.167969 168.894531 C 196.738281 168.574219 197.980469 168.324219 199.414062 167.796875 C 199.726562 167.675781 200.070312 167.558594 200.410156 167.441406 C 200.753906 167.324219 201.09375 167.210938 201.425781 167.078125 L 201.628906 167 C 201.953125 166.878906 202.101562 166.828125 202.402344 166.6875 C 204.347656 165.855469 206.320312 164.746094 207.996094 163.554688 L 208.371094 163.277344 C 211.964844 160.644531 216.523438 156.152344 218.542969 151.433594 C 218.742188 150.957031 218.984375 150.476562 219.226562 149.992188 C 219.554688 149.34375 219.863281 148.734375 220.082031 148.09375 C 220.867188 145.675781 221.40625 143.464844 221.730469 141.339844 C 222.183594 138.226562 222.234375 135.53125 221.90625 132.035156 Z M 165.914062 142.402344 L 109.753906 126.765625 L 101.648438 145.542969 L 162.4375 158.546875 C 162.445312 158.539062 162.453125 158.535156 162.460938 158.53125 Z M 161.421875 160.207031 L 101.128906 147.3125 L 98.039062 168.253906 C 98.828125 168.792969 99.582031 169.804688 100.496094 171.105469 C 100.703125 171.398438 100.886719 171.660156 101.027344 171.84375 C 102.746094 174.046875 105.386719 176.421875 107.917969 178.050781 L 112.351562 180.617188 C 114.960938 182.140625 118.570312 183.25 123.089844 183.917969 C 129.542969 184.902344 136.777344 183.734375 143.460938 180.640625 C 146.304688 179.335938 149.308594 177.304688 151.914062 174.910156 C 153.582031 173.398438 154.910156 171.910156 156.21875 170.078125 C 157.714844 168.042969 158.824219 166.359375 159.792969 164.238281 C 159.921875 163.953125 160.023438 163.765625 160.121094 163.597656 C 160.1875 163.484375 160.246094 163.378906 160.316406 163.203125 C 160.351562 163.113281 160.421875 162.90625 160.523438 162.625 C 160.90625 161.550781 161.191406 160.773438 161.421875 160.207031 Z M 99.347656 146.796875 L 70.601562 135.730469 L 69.542969 118.660156 L 46.832031 127.941406 L 45.230469 185.613281 L 54.304688 171.984375 L 95.902344 168.332031 C 96 168.253906 96.101562 168.175781 96.207031 168.101562 Z M 94.472656 170.304688 L 55.339844 173.734375 L 45.628906 188.328125 C 52.742188 195.441406 59.875 197.84375 66.28125 195.257812 C 72.242188 192.851562 76.214844 186.414062 76.226562 183.214844 L 76.230469 182.789062 L 76.484375 182.441406 C 77.304688 181.332031 77.6875 180.671875 77.914062 180.277344 C 78.5 179.269531 78.855469 179.03125 80.019531 178.871094 C 80.4375 178.816406 81.0625 178.730469 82.121094 178.480469 C 85.03125 177.792969 87.71875 176.546875 89.882812 174.886719 C 90.066406 174.746094 90.230469 174.625 90.382812 174.515625 C 90.582031 174.371094 90.757812 174.25 90.945312 174.074219 C 92.441406 172.707031 93.546875 171.515625 94.472656 170.304688 Z M 44.984375 128.269531 L 12.050781 129.332031 C 11.769531 129.757812 11.445312 130.101562 11.074219 130.480469 C 10.152344 131.425781 8.761719 132.851562 6.828125 137.074219 C 5.480469 140.0625 4.863281 145.015625 5.433594 148.347656 C 5.730469 150.035156 6.109375 151.265625 6.59375 152.824219 L 6.730469 153.269531 C 7.0625 154.324219 8.097656 156.167969 8.835938 157.191406 L 12.789062 161.683594 C 13.246094 162.09375 13.644531 162.375 13.996094 162.628906 C 14.8125 163.203125 15.734375 163.859375 15.734375 165.410156 C 15.652344 170.046875 16.734375 174.332031 18.777344 177.5 L 21.601562 181.285156 C 23.109375 182.9375 26.074219 185.261719 28.300781 186.179688 C 31.957031 187.65625 37.46875 188.835938 40.929688 187.933594 L 41.363281 187.808594 C 41.957031 187.636719 42.613281 187.457031 43.34375 187.421875 Z M 10.035156 125.457031 C 10.132812 125.523438 10.285156 125.597656 10.449219 125.679688 C 10.855469 125.886719 11.34375 126.140625 11.742188 126.503906 L 51.871094 87.289062 L 13.058594 95.976562 L 12.96875 96.09375 C 12.703125 96.433594 12.441406 96.605469 12.246094 96.734375 C 12.195312 96.765625 12.136719 96.800781 12.070312 96.851562 L 11.9375 96.933594 C 11.78125 97.019531 11.667969 97.082031 11.570312 97.128906 C 11.398438 97.214844 11.375 97.230469 11.183594 97.382812 C 10.796875 97.699219 10.464844 98.015625 10.195312 98.324219 L 10.066406 98.472656 L 9.902344 98.578125 C 5.339844 101.449219 2.617188 106.378906 2.617188 111.761719 C 2.617188 116.375 4.628906 120.714844 8.132812 123.667969 L 8.300781 123.835938 C 8.8125 124.460938 9.414062 125.023438 10.035156 125.457031 Z M 13.183594 94.066406 L 53.902344 84.953125 L 53.855469 46.972656 C 52.492188 46.867188 51.140625 47.320312 50.105469 48.238281 L 49.640625 48.558594 L 49.355469 48.605469 C 43.851562 49.460938 39.1875 53.273438 37.1875 58.554688 L 37.070312 58.859375 L 36.828125 59.074219 C 35.292969 60.421875 33.992188 62.125 32.957031 64.148438 C 32.855469 64.347656 32.769531 64.515625 32.703125 64.691406 L 32.527344 65.160156 L 32.082031 65.394531 C 28.171875 67.425781 24.445312 70.472656 21.304688 74.203125 C 16.027344 80.472656 13.046875 87.808594 13.183594 94.066406 Z M 13.398438 127.453125 L 45.734375 126.40625 L 69.984375 116.496094 L 91.164062 105.125 L 54.996094 86.804688 Z M 90.066406 107.796875 L 71.332031 117.855469 L 72.238281 132.46875 Z M 72.921875 134.65625 L 99.867188 145.035156 L 108.171875 125.800781 L 93.175781 106.628906 Z M 91.007812 72.164062 C 90.582031 72.605469 90.210938 73.09375 89.890625 73.621094 L 55.691406 47.617188 L 55.738281 84.585938 L 88.71875 78.5 C 88.765625 79.121094 88.871094 79.726562 89.046875 80.304688 L 57.664062 86.097656 L 92.421875 103.703125 L 94.953125 85.964844 C 95.535156 86.117188 96.144531 86.207031 96.769531 86.226562 L 94.113281 104.84375 L 109.578125 124.625 L 139.015625 116.871094 L 102.566406 84.105469 C 103.019531 83.695312 103.429688 83.238281 103.789062 82.738281 L 140.445312 115.6875 L 149.753906 86.074219 C 150.3125 86.320312 150.894531 86.511719 151.507812 86.628906 L 142.695312 114.648438 L 175.011719 88.007812 C 175.347656 88.523438 175.738281 89 176.175781 89.425781 L 142.910156 116.851562 L 180.808594 125.683594 L 197.5625 74.058594 L 189.355469 79.59375 C 189.066406 79.046875 188.722656 78.539062 188.324219 78.070312 L 197.933594 71.597656 C 197.730469 64.480469 191.542969 56.316406 182.433594 51.207031 C 176.390625 47.816406 169.824219 46.1875 164.152344 46.621094 L 179.015625 75.667969 C 178.441406 75.890625 177.894531 76.167969 177.382812 76.507812 L 162.777344 47.964844 L 156.269531 70.757812 C 155.707031 70.527344 155.113281 70.359375 154.503906 70.257812 L 161.390625 46.136719 L 161.328125 45.984375 C 160.175781 43.261719 158.265625 40.917969 155.804688 39.203125 C 151.363281 36.144531 145.628906 35.621094 140.679688 37.765625 L 151.402344 70.3125 C 150.792969 70.441406 150.210938 70.640625 149.660156 70.894531 L 139.007812 38.570312 L 103.601562 72.816406 C 103.226562 72.332031 102.804688 71.882812 102.332031 71.492188 L 137.886719 37.105469 C 137.023438 36.109375 136.058594 35.238281 134.992188 34.519531 C 130.058594 31.097656 123.730469 30.792969 118.46875 33.710938 L 118.070312 33.9375 L 117.089844 33.773438 L 116.808594 33.523438 C 116.449219 33.207031 116.070312 32.90625 115.542969 32.527344 C 110.164062 28.832031 102.945312 28.890625 97.609375 32.6875 L 97.347656 32.875 L 97.035156 32.917969 C 96.441406 33.007812 95.9375 33.105469 95.445312 33.230469 C 94.84375 33.386719 94.4375 33.5 94.136719 33.585938 L 97.238281 69.59375 C 97.167969 69.589844 97.101562 69.582031 97.03125 69.582031 C 96.476562 69.582031 95.933594 69.636719 95.40625 69.742188 L 92.296875 33.652344 C 87.011719 32.136719 80.671875 32.222656 74.367188 33.9375 C 66.449219 36.09375 59.773438 40.492188 56.3125 45.78125 Z M 179.640625 127.296875 L 141.515625 118.410156 L 141.339844 118.960938 L 140.648438 118.339844 L 112.742188 125.691406 L 166.710938 140.714844 Z M 171.070312 138.835938 L 210.917969 120.289062 L 181.898438 127.59375 Z M 199.75 73.277344 L 182.808594 125.472656 L 218.933594 116.382812 C 221.617188 109.578125 219.316406 101.964844 213.285156 97.8125 C 212.769531 97.433594 212.226562 97.101562 211.535156 96.742188 L 211.3125 96.625 L 210.96875 96.214844 C 210.898438 96.128906 210.828125 96.042969 210.742188 95.953125 L 210.117188 95.328125 L 210.460938 94.515625 C 213.335938 87.734375 211.015625 79.773438 204.941406 75.59375 C 203.347656 74.480469 201.597656 73.714844 199.75 73.277344 Z M 224.324219 141.726562 C 223.980469 144.003906 223.40625 146.351562 222.570312 148.921875 C 222.285156 149.753906 221.921875 150.472656 221.570312 151.171875 C 221.351562 151.601562 221.136719 152.027344 220.957031 152.457031 C 219.066406 156.886719 214.941406 161.71875 209.925781 165.394531 L 209.53125 165.679688 C 207.695312 166.992188 205.546875 168.195312 203.476562 169.082031 C 203.128906 169.242188 202.945312 169.3125 202.535156 169.464844 L 202.363281 169.527344 C 202.027344 169.660156 201.648438 169.792969 201.261719 169.921875 C 200.953125 170.027344 200.640625 170.136719 200.335938 170.253906 C 198.695312 170.855469 197.300781 171.136719 195.6875 171.464844 L 195.535156 171.496094 C 191.050781 172.460938 185.984375 172.394531 181.28125 171.304688 L 177.410156 170.183594 C 176.90625 170.023438 176.636719 169.863281 176.433594 169.746094 C 176.371094 169.703125 176.308594 169.664062 176.214844 169.628906 C 171.757812 167.851562 170.238281 166.742188 166.558594 164.054688 C 165.945312 163.609375 165.265625 162.945312 164.601562 162.300781 C 164.347656 162.054688 164.03125 161.746094 163.742188 161.476562 C 163.457031 162.207031 163.136719 163.105469 162.996094 163.503906 C 162.878906 163.832031 162.792969 164.074219 162.753906 164.164062 C 162.628906 164.484375 162.523438 164.675781 162.402344 164.890625 C 162.339844 165.003906 162.269531 165.125 162.183594 165.320312 C 161.121094 167.652344 159.929688 169.457031 158.34375 171.613281 C 156.949219 173.566406 155.464844 175.234375 153.683594 176.847656 C 150.886719 179.414062 147.640625 181.613281 144.558594 183.023438 C 137.421875 186.332031 129.65625 187.570312 122.699219 186.511719 C 117.855469 185.796875 113.925781 184.574219 111.035156 182.886719 L 106.550781 180.289062 C 103.738281 178.480469 100.847656 175.875 98.960938 173.457031 C 98.800781 173.246094 98.589844 172.949219 98.351562 172.613281 C 98.089844 172.242188 97.613281 171.566406 97.191406 171.050781 L 97.074219 171.207031 C 95.949219 172.800781 94.605469 174.277344 92.722656 176.003906 C 92.4375 176.265625 92.175781 176.457031 91.921875 176.640625 C 91.789062 176.734375 91.648438 176.839844 91.488281 176.964844 C 89.023438 178.855469 85.996094 180.257812 82.722656 181.035156 C 81.539062 181.3125 80.808594 181.414062 80.375 181.46875 C 80.328125 181.476562 80.285156 181.480469 80.246094 181.488281 C 80.226562 181.519531 80.207031 181.554688 80.183594 181.59375 C 79.953125 181.996094 79.578125 182.644531 78.832031 183.675781 C 78.519531 187.84375 74.164062 194.902344 67.261719 197.6875 C 65.523438 198.390625 63.445312 198.902344 61.078125 198.902344 C 56.421875 198.902344 50.648438 196.914062 44.148438 190.554688 L 43.21875 191.953125 L 43.269531 190.078125 C 42.90625 190.121094 42.527344 190.203125 42.09375 190.328125 C 41.929688 190.378906 41.765625 190.425781 41.601562 190.46875 C 37.539062 191.53125 31.496094 190.300781 27.3125 188.609375 C 24.683594 187.527344 21.335938 184.910156 19.613281 182.996094 L 19.535156 182.90625 L 16.625 178.992188 C 14.25 175.320312 13.019531 170.511719 13.113281 165.386719 C 13.113281 165.292969 13.097656 165.257812 13.097656 165.257812 C 13.046875 165.167969 12.71875 164.9375 12.480469 164.765625 C 12.070312 164.476562 11.5625 164.117188 10.964844 163.566406 L 10.867188 163.46875 L 6.753906 158.785156 C 5.875 157.585938 4.660156 155.433594 4.226562 154.050781 L 4.089844 153.601562 C 3.597656 152.019531 3.175781 150.652344 2.847656 148.796875 C 2.191406 144.953125 2.878906 139.445312 4.441406 135.988281 C 6.566406 131.347656 8.148438 129.722656 9.195312 128.648438 C 9.359375 128.484375 9.5 128.335938 9.617188 128.203125 C 9.492188 128.136719 9.359375 128.066406 9.261719 128.019531 C 8.988281 127.878906 8.734375 127.746094 8.542969 127.617188 C 7.734375 127.046875 7.003906 126.367188 6.351562 125.597656 C 2.308594 122.144531 -0.00390625 117.109375 -0.00390625 111.761719 C -0.00390625 105.535156 3.113281 99.828125 8.34375 96.457031 C 8.6875 96.085938 9.082031 95.710938 9.53125 95.347656 C 9.910156 95.039062 10.101562 94.933594 10.378906 94.792969 C 10.4375 94.761719 10.5 94.730469 10.578125 94.6875 C 10.242188 87.671875 13.464844 79.441406 19.296875 72.515625 C 22.546875 68.652344 26.398438 65.46875 30.457031 63.285156 C 30.503906 63.183594 30.558594 63.074219 30.617188 62.960938 C 31.753906 60.742188 33.175781 58.847656 34.851562 57.324219 C 37.203125 51.429688 42.425781 47.15625 48.605469 46.070312 C 50.15625 44.804688 52.121094 44.199219 54.105469 44.355469 C 57.910156 38.535156 65.152344 33.726562 73.679688 31.40625 C 80.476562 29.558594 87.367188 29.46875 93.128906 31.148438 C 93.453125 31.050781 93.949219 30.90625 94.792969 30.691406 C 95.277344 30.566406 95.789062 30.460938 96.347656 30.371094 C 102.554688 26.117188 110.832031 26.109375 117.054688 30.382812 C 117.3125 30.570312 117.609375 30.789062 117.921875 31.035156 C 123.910156 28.042969 130.949219 28.523438 136.472656 32.355469 C 137.679688 33.167969 138.792969 34.148438 139.78125 35.269531 L 139.835938 35.21875 L 139.851562 35.261719 C 145.582031 32.871094 152.171875 33.519531 157.296875 37.046875 C 159.894531 38.855469 161.960938 41.261719 163.328125 44.054688 C 169.648438 43.410156 177.015625 45.160156 183.714844 48.917969 C 193.101562 54.183594 199.445312 62.25 200.425781 69.917969 L 200.957031 69.558594 L 200.570312 70.753906 C 202.660156 71.28125 204.632812 72.179688 206.4375 73.4375 C 213.265625 78.140625 216.03125 86.945312 213.21875 94.667969 C 213.824219 95 214.335938 95.328125 214.8125 95.679688 C 221.789062 100.488281 224.492188 109.328125 221.417969 117.25 C 221.453125 117.96875 221.449219 118.6875 221.398438 119.433594 C 221.371094 119.910156 221.320312 120.242188 221.28125 120.503906 C 221.222656 120.882812 221.222656 120.882812 221.410156 121.339844 C 222.65625 124.261719 224.226562 128.761719 224.515625 131.785156 C 224.867188 135.507812 224.808594 138.386719 224.324219 141.726562 Z M 161.097656 80.765625 L 173.683594 82.949219 C 173.722656 82.324219 173.820312 81.71875 173.988281 81.140625 L 161.40625 78.957031 C 161.371094 79.578125 161.265625 80.183594 161.097656 80.765625 Z M 105.28125 78.898438 L 144.816406 79.285156 C 144.789062 79.007812 144.773438 78.730469 144.773438 78.449219 C 144.773438 78.109375 144.800781 77.777344 144.839844 77.449219 L 105.304688 77.058594 C 105.332031 77.335938 105.347656 77.613281 105.347656 77.894531 C 105.347656 78.234375 105.320312 78.566406 105.28125 78.898438 Z M 153.121094 87.230469 C 157.953125 87.230469 161.871094 83.308594 161.871094 78.445312 C 161.871094 73.613281 157.953125 69.691406 153.121094 69.691406 C 148.257812 69.691406 144.332031 73.613281 144.332031 78.445312 C 144.332031 83.308594 148.257812 87.230469 153.121094 87.230469 Z M 54.820312 92.011719 C 58.3125 92.011719 61.171875 89.175781 61.171875 85.6875 C 61.171875 82.199219 58.3125 79.339844 54.820312 79.339844 C 51.332031 79.339844 48.472656 82.199219 48.472656 85.6875 C 48.472656 89.175781 51.332031 92.011719 54.820312 92.011719 Z M 54.820312 94.003906 C 59.414062 94.003906 63.164062 90.277344 63.164062 85.6875 C 63.164062 81.097656 59.414062 77.34375 54.820312 77.34375 C 50.230469 77.34375 46.507812 81.097656 46.507812 85.6875 C 46.507812 90.277344 50.230469 94.003906 54.820312 94.003906 Z M 97.035156 86.558594 C 92.273438 86.558594 88.367188 82.65625 88.367188 77.890625 C 88.367188 73.128906 92.273438 69.261719 97.035156 69.261719 C 101.800781 69.261719 105.667969 73.128906 105.667969 77.890625 C 105.667969 82.65625 101.800781 86.558594 97.035156 86.558594 " fill-opacity="1" fill-rule="nonzero"/></g><g fill="#000000" fill-opacity="1"><g transform="translate(11.521753, 148.502056)"><g><path d="M 34.21875 -81.5625 L 34.21875 -79.265625 C 31.601562 -79.179688 29.625 -78.890625 28.28125 -78.390625 C 26.9375 -77.890625 26.035156 -76.96875 25.578125 -75.625 C 25.117188 -74.28125 24.890625 -72.191406 24.890625 -69.359375 L 24.890625 -12.21875 C 24.890625 -9.445312 25.117188 -7.367188 25.578125 -5.984375 C 26.035156 -4.609375 26.9375 -3.707031 28.28125 -3.28125 C 29.625 -2.863281 31.601562 -2.65625 34.21875 -2.65625 L 42.625 -2.65625 C 46.238281 -2.65625 49.175781 -3.035156 51.4375 -3.796875 C 53.707031 -4.566406 55.515625 -5.773438 56.859375 -7.421875 C 58.203125 -9.078125 59.21875 -11.285156 59.90625 -14.046875 C 60.59375 -16.816406 61.128906 -20.195312 61.515625 -24.1875 L 64.171875 -24.1875 C 63.941406 -21.8125 63.828125 -18.664062 63.828125 -14.75 C 63.828125 -13.289062 63.882812 -11.195312 64 -8.46875 C 64.113281 -5.738281 64.320312 -2.914062 64.625 0 C 60.707031 -0.15625 56.289062 -0.25 51.375 -0.28125 C 46.457031 -0.320312 42.082031 -0.34375 38.25 -0.34375 C 36.5625 -0.34375 34.390625 -0.34375 31.734375 -0.34375 C 29.085938 -0.34375 26.226562 -0.320312 23.15625 -0.28125 C 20.082031 -0.25 16.96875 -0.210938 13.8125 -0.171875 C 10.664062 -0.128906 7.675781 -0.0703125 4.84375 0 L 4.84375 -2.296875 C 7.445312 -2.453125 9.421875 -2.757812 10.765625 -3.21875 C 12.109375 -3.6875 13.007812 -4.609375 13.46875 -5.984375 C 13.9375 -7.367188 14.171875 -9.445312 14.171875 -12.21875 L 14.171875 -69.359375 C 14.171875 -72.191406 13.9375 -74.28125 13.46875 -75.625 C 13.007812 -76.96875 12.109375 -77.890625 10.765625 -78.390625 C 9.421875 -78.890625 7.445312 -79.179688 4.84375 -79.265625 L 4.84375 -81.5625 C 6.445312 -81.488281 8.554688 -81.410156 11.171875 -81.328125 C 13.785156 -81.253906 16.585938 -81.21875 19.578125 -81.21875 C 22.265625 -81.21875 24.929688 -81.253906 27.578125 -81.328125 C 30.234375 -81.410156 32.445312 -81.488281 34.21875 -81.5625 Z M 34.21875 -81.5625 "/></g></g></g><g fill="#000000" fill-opacity="1"><g transform="translate(79.263351, 148.502056)"><g><path d="M 4.84375 -81.5625 C 6.445312 -81.488281 8.554688 -81.410156 11.171875 -81.328125 C 13.785156 -81.253906 16.359375 -81.21875 18.890625 -81.21875 C 22.503906 -81.21875 25.960938 -81.253906 29.265625 -81.328125 C 32.566406 -81.410156 34.90625 -81.453125 36.28125 -81.453125 C 44.351562 -81.453125 50.421875 -79.757812 54.484375 -76.375 C 58.554688 -73 60.59375 -68.660156 60.59375 -63.359375 C 60.59375 -60.671875 60.035156 -58.039062 58.921875 -55.46875 C 57.804688 -52.894531 55.960938 -50.550781 53.390625 -48.4375 C 50.816406 -46.332031 47.382812 -44.625 43.09375 -43.3125 L 43.09375 -43.09375 C 49.15625 -42.320312 53.894531 -40.878906 57.3125 -38.765625 C 60.726562 -36.648438 63.128906 -34.171875 64.515625 -31.328125 C 65.898438 -28.492188 66.59375 -25.5 66.59375 -22.34375 C 66.59375 -17.96875 65.492188 -14.109375 63.296875 -10.765625 C 61.109375 -7.429688 57.941406 -4.800781 53.796875 -2.875 C 49.648438 -0.957031 44.695312 0 38.9375 0 C 37.25 0 34.710938 -0.0546875 31.328125 -0.171875 C 27.953125 -0.285156 23.882812 -0.34375 19.125 -0.34375 C 16.4375 -0.34375 13.785156 -0.320312 11.171875 -0.28125 C 8.554688 -0.25 6.445312 -0.15625 4.84375 0 L 4.84375 -2.296875 C 7.445312 -2.453125 9.421875 -2.757812 10.765625 -3.21875 C 12.109375 -3.6875 13.007812 -4.609375 13.46875 -5.984375 C 13.9375 -7.367188 14.171875 -9.445312 14.171875 -12.21875 L 14.171875 -69.359375 C 14.171875 -72.191406 13.9375 -74.28125 13.46875 -75.625 C 13.007812 -76.96875 12.109375 -77.890625 10.765625 -78.390625 C 9.421875 -78.890625 7.445312 -79.179688 4.84375 -79.265625 Z M 33.40625 -79.265625 C 29.875 -79.265625 27.570312 -78.609375 26.5 -77.296875 C 25.425781 -75.992188 24.890625 -73.347656 24.890625 -69.359375 L 24.890625 -12.21875 C 24.890625 -9.519531 25.117188 -7.476562 25.578125 -6.09375 C 26.035156 -4.71875 26.878906 -3.800781 28.109375 -3.34375 C 29.335938 -2.882812 31.144531 -2.65625 33.53125 -2.65625 C 41.050781 -2.65625 46.519531 -4.398438 49.9375 -7.890625 C 53.351562 -11.390625 55.0625 -16.363281 55.0625 -22.8125 C 55.0625 -28.726562 53.46875 -33.296875 50.28125 -36.515625 C 47.09375 -39.742188 41.851562 -41.359375 34.5625 -41.359375 L 22.6875 -41.359375 C 22.6875 -41.359375 22.6875 -41.679688 22.6875 -42.328125 C 22.6875 -42.984375 22.6875 -43.3125 22.6875 -43.3125 L 32.609375 -43.3125 C 37.140625 -43.3125 40.628906 -44.175781 43.078125 -45.90625 C 45.535156 -47.632812 47.222656 -49.9375 48.140625 -52.8125 C 49.066406 -55.695312 49.53125 -58.789062 49.53125 -62.09375 C 49.53125 -67.78125 48.28125 -72.0625 45.78125 -74.9375 C 43.289062 -77.820312 39.164062 -79.265625 33.40625 -79.265625 Z M 33.40625 -79.265625 "/></g></g></g><g fill="#000000" fill-opacity="1"><g transform="translate(151.037161, 148.502056)"><g><path d="M 29.484375 -82.828125 C 33.328125 -82.828125 36.25 -82.382812 38.25 -81.5 C 40.25 -80.625 42.015625 -79.644531 43.546875 -78.5625 C 44.460938 -78.03125 45.207031 -77.628906 45.78125 -77.359375 C 46.363281 -77.085938 46.925781 -76.953125 47.46875 -76.953125 C 48.226562 -76.953125 48.78125 -77.375 49.125 -78.21875 C 49.476562 -79.0625 49.769531 -80.332031 50 -82.03125 L 52.640625 -82.03125 C 52.566406 -80.71875 52.472656 -79.160156 52.359375 -77.359375 C 52.242188 -75.554688 52.164062 -73.175781 52.125 -70.21875 C 52.09375 -67.257812 52.078125 -63.359375 52.078125 -58.515625 L 49.421875 -58.515625 C 49.191406 -62.203125 48.382812 -65.734375 47 -69.109375 C 45.613281 -72.492188 43.597656 -75.257812 40.953125 -77.40625 C 38.304688 -79.5625 34.832031 -80.640625 30.53125 -80.640625 C 26.457031 -80.640625 23.09375 -79.410156 20.4375 -76.953125 C 17.789062 -74.492188 16.46875 -71.269531 16.46875 -67.28125 C 16.46875 -63.820312 17.347656 -60.921875 19.109375 -58.578125 C 20.878906 -56.234375 23.242188 -54.117188 26.203125 -52.234375 C 29.160156 -50.359375 32.367188 -48.347656 35.828125 -46.203125 C 39.816406 -43.742188 43.367188 -41.300781 46.484375 -38.875 C 49.597656 -36.457031 52.054688 -33.789062 53.859375 -30.875 C 55.660156 -27.957031 56.5625 -24.425781 56.5625 -20.28125 C 56.5625 -15.363281 55.445312 -11.289062 53.21875 -8.0625 C 51 -4.832031 48.046875 -2.410156 44.359375 -0.796875 C 40.671875 0.804688 36.597656 1.609375 32.140625 1.609375 C 28.066406 1.609375 24.835938 1.144531 22.453125 0.21875 C 20.078125 -0.695312 18.046875 -1.65625 16.359375 -2.65625 C 14.671875 -3.726562 13.363281 -4.265625 12.4375 -4.265625 C 11.675781 -4.265625 11.117188 -3.84375 10.765625 -3 C 10.421875 -2.15625 10.132812 -0.882812 9.90625 0.8125 L 7.25 0.8125 C 7.40625 -0.800781 7.503906 -2.703125 7.546875 -4.890625 C 7.585938 -7.078125 7.625 -9.9375 7.65625 -13.46875 C 7.695312 -17.007812 7.71875 -21.46875 7.71875 -26.84375 L 10.375 -26.84375 C 10.675781 -22.238281 11.535156 -17.9375 12.953125 -13.9375 C 14.378906 -9.945312 16.570312 -6.738281 19.53125 -4.3125 C 22.488281 -1.894531 26.421875 -0.6875 31.328125 -0.6875 C 33.867188 -0.6875 36.269531 -1.203125 38.53125 -2.234375 C 40.800781 -3.273438 42.664062 -4.925781 44.125 -7.1875 C 45.582031 -9.457031 46.3125 -12.398438 46.3125 -16.015625 C 46.3125 -19.160156 45.5625 -21.90625 44.0625 -24.25 C 42.5625 -26.59375 40.46875 -28.78125 37.78125 -30.8125 C 35.09375 -32.851562 31.945312 -34.945312 28.34375 -37.09375 C 24.726562 -39.320312 21.347656 -41.585938 18.203125 -43.890625 C 15.054688 -46.191406 12.539062 -48.859375 10.65625 -51.890625 C 8.769531 -54.929688 7.828125 -58.601562 7.828125 -62.90625 C 7.828125 -67.4375 8.84375 -71.175781 10.875 -74.125 C 12.914062 -77.082031 15.585938 -79.269531 18.890625 -80.6875 C 22.191406 -82.113281 25.722656 -82.828125 29.484375 -82.828125 Z M 29.484375 -82.828125 "/></g></g></g></svg>